<svg width="104" height="78" viewBox="0 0 104 78" fill="none" xmlns="http://www.w3.org/2000/svg">
<path d="M87.7158 6.61586C81.056 3.58722 73.9349 1.38613 66.4901 0.132812C65.5758 1.73952 64.5076 3.90059 63.7711 5.6197C55.8571 4.46289 48.0158 4.46289 40.2473 5.6197C39.511 3.90059 38.4185 1.73952 37.496 0.132812C30.0431 1.38613 22.9139 3.59531 16.2541 6.6319C2.82113 26.3619 -0.820327 45.6019 1.00041 64.5686C9.90986 71.0355 18.5442 74.9639 27.0328 77.5346C29.1287 74.7309 30.9979 71.7505 32.6083 68.6095C29.5414 67.4768 26.6039 66.079 23.8284 64.4562C24.5647 63.926 25.285 63.3717 25.9808 62.8013C42.9096 70.4973 61.3031 70.4973 78.0295 62.8013C78.7336 63.3717 79.4537 63.926 80.182 64.4562C77.3983 66.0869 74.4528 67.4847 71.3859 68.6176C72.9962 71.7505 74.8574 74.739 76.9613 77.5425C85.4581 74.9719 94.1005 71.0436 103.01 64.5686C105.146 42.5813 99.3605 23.5181 87.7158 6.61586ZM34.9146 52.9043C29.8327 52.9043 25.6652 48.293 25.6652 42.6777C25.6652 37.0624 29.7437 32.4432 34.9146 32.4432C40.0855 32.4432 44.2529 37.0543 44.1639 42.6777C44.1719 48.293 40.0855 52.9043 34.9146 52.9043ZM69.0958 52.9043C64.014 52.9043 59.8465 48.293 59.8465 42.6777C59.8465 37.0624 63.9249 32.4432 69.0958 32.4432C74.2666 32.4432 78.4342 37.0543 78.3452 42.6777C78.3452 48.293 74.2666 52.9043 69.0958 52.9043Z" fill="#5865F2"/>
</svg>
