<svg width="43" height="41" viewBox="0 0 43 41" fill="none" xmlns="http://www.w3.org/2000/svg">
<path d="M39.3143 20.5C39.3143 31.8218 30.5135 41 19.6571 41C8.8008 41 0 31.8218 0 20.5C0 9.17816 8.8008 0 19.6571 0C30.5135 0 39.3143 9.17816 39.3143 20.5ZM6.96496 20.5C6.96496 27.8103 12.6474 33.7364 19.6571 33.7364C26.6668 33.7364 32.3493 27.8103 32.3493 20.5C32.3493 13.1897 26.6668 7.2636 19.6571 7.2636C12.6474 7.2636 6.96496 13.1897 6.96496 20.5Z" fill="#900AA6"/>
<path d="M43 20.5C43 31.8218 34.1992 41 23.3429 41C12.4865 41 3.68573 31.8218 3.68573 20.5C3.68573 9.17816 12.4865 0 23.3429 0C34.1992 0 43 9.17816 43 20.5ZM10.6507 20.5C10.6507 27.8103 16.3332 33.7364 23.3429 33.7364C30.3526 33.7364 36.0351 27.8103 36.0351 20.5C36.0351 13.1897 30.3526 7.2636 23.3429 7.2636C16.3332 7.2636 10.6507 13.1897 10.6507 20.5Z" fill="#0329BA"/>
</svg>
