<svg width="26" height="34" viewBox="0 0 26 34" fill="none" xmlns="http://www.w3.org/2000/svg">
<path d="M25.9607 10.1309C25.9515 10.0651 25.9399 10.0071 25.9237 9.95029L25.926 9.95921C25.866 9.71174 25.7435 9.4977 25.5759 9.32603L25.5771 9.32715L16.3326 0.409115C16.1535 0.246361 15.9305 0.128197 15.682 0.072459L15.6728 0.0702295C15.6254 0.0568525 15.5665 0.0457049 15.5076 0.0379016L15.5006 0.0367869C15.4475 0.0222951 15.3839 0.0100328 15.318 0.00111474L15.3111 0H1.44444C0.647111 0 0 0.624262 0 1.39344V32.6066C0 33.3757 0.647111 34 1.44444 34H24.5556C25.3529 33.9989 25.9988 33.3757 26 32.6066V10.3115C25.9908 10.2424 25.978 10.181 25.9607 10.1209L25.963 10.1309H25.9607ZM21.0658 8.91803H16.7532V4.75777L21.0658 8.91803ZM2.88658 31.2131V2.78689H13.8644V10.3115C13.8644 11.0807 14.5115 11.7049 15.3088 11.7049H23.1088V31.2131H2.88658ZM18.7755 20.0656H14.4421V15.8852C14.4421 15.1161 13.795 14.4918 12.9977 14.4918C12.2004 14.4918 11.5532 15.1161 11.5532 15.8852V20.0656H7.21991C6.42258 20.0656 5.77547 20.6898 5.77547 21.459C5.77547 22.2282 6.42258 22.8525 7.21991 22.8525H11.5532V27.0328C11.5532 27.802 12.2004 28.4262 12.9977 28.4262C13.795 28.4262 14.4421 27.802 14.4421 27.0328V22.8525H18.7755C19.5728 22.8525 20.2199 22.2282 20.2199 21.459C20.2199 20.6898 19.5728 20.0656 18.7755 20.0656Z" fill="#914ABC"/>
</svg>
