<svg width="79" height="78" viewBox="0 0 79 78" fill="none" xmlns="http://www.w3.org/2000/svg">
<path d="M77.1597 63.0808L64.7394 50.9638C63.7728 50.0226 62.4235 49.5035 60.9446 49.5035C59.3863 49.5035 57.884 50.096 56.8216 51.1318L50.1089 57.6779L48.2945 56.6966C44.301 54.5375 38.8378 51.5808 33.0624 45.9442C27.2665 40.2988 24.2311 34.9565 22.0105 31.0512L21.0188 29.3327L27.7447 22.7778C29.9694 20.6015 30.0459 17.1396 27.9124 15.0551L15.4893 2.94535C14.5211 2.00412 13.175 1.4834 11.6973 1.4834C10.1374 1.4834 8.63677 2.07748 7.57602 3.11452L4.52409 6.10578L4.23753 6.56196C3.10318 7.98223 2.17441 9.57888 1.47711 11.3178C0.832432 12.975 0.42951 14.55 0.245729 16.1294C-1.3565 29.1098 4.78229 41.026 21.4357 57.2606C41.1764 76.5034 57.6711 77.9998 62.2574 77.9998C63.0402 77.9998 63.5155 77.9581 63.6495 77.9453C65.343 77.7444 66.9662 77.3472 68.6009 76.7287C70.3668 76.0572 71.9986 75.1565 73.4491 74.0501L74.1452 73.5177L76.9981 70.7874C79.2224 68.6199 79.2948 65.1625 77.1597 63.0808ZM75.4571 69.2902L73.2575 71.4108C72.2186 72.3833 70.4309 73.755 67.816 74.752C66.34 75.3088 64.8953 75.6615 63.4016 75.8335C63.3193 75.8435 62.9839 75.8664 62.4362 75.8664C58.0189 75.8664 42.1142 74.4145 22.9799 55.7614C4.13885 37.3937 1.12804 26.7359 2.40999 16.3808C2.57609 14.9677 2.93379 13.5603 3.50775 12.0839C4.54383 9.50592 5.95035 7.76576 6.94491 6.76119L9.10917 4.62057C9.78016 3.96917 10.7233 3.59355 11.7018 3.59355C12.5875 3.59355 13.3896 3.89621 13.9516 4.4502L26.3748 16.5587C27.6592 17.8127 27.5843 19.9316 26.207 21.2801L18.4483 28.8377L18.2925 28.9928L18.7221 29.7031C19.1563 30.4163 19.6139 31.2168 20.1069 32.0919C22.392 36.1045 25.5204 41.5992 31.5235 47.4538C37.5373 53.3157 43.1523 56.3487 47.2559 58.565C48.1888 59.0701 48.9996 59.5091 49.7236 59.928L50.4522 60.3525L58.3655 52.637C59.0274 51.99 59.9693 51.6184 60.9462 51.6184C61.838 51.6184 62.6397 51.9227 63.205 52.4751L75.6208 64.5776C76.9023 65.8327 76.8271 67.9501 75.4571 69.2902Z" fill="#5606A6"/>
<path d="M44.4145 34.9275C46.6142 34.9259 64.1712 32.5231 64.8307 32.4269C65.0412 32.4269 66.1213 32.4025 66.6714 31.8633C67.0155 31.5278 67.416 30.783 66.2019 29.598L61.8466 25.3544L77.4084 10.1833C77.7896 9.81168 78.2369 8.85481 77.2275 7.87069L69.9248 0.75172C69.4187 0.258254 68.9126 0.00410548 68.4138 9.68231e-05C68.0298 -0.0043127 67.668 0.142003 67.3852 0.416195C67.3173 0.485144 67.2659 0.546877 67.2293 0.595382L51.5088 15.9189L46.7576 11.2893C45.7232 10.2823 45.0419 10.7285 44.7977 10.9678C44.2608 11.4913 44.2488 12.5833 44.2608 12.8314L42.3391 32.671C42.3304 32.7716 42.2729 33.6824 42.888 34.331C43.1433 34.6048 43.6169 34.9275 44.4145 34.9275ZM45.5032 12.8715C45.4913 12.5416 45.5472 12.1371 45.6225 11.9347C45.6829 11.9735 45.768 12.0393 45.8799 12.1483L51.508 17.6374L68.1482 1.41154L68.2247 1.33979L68.2646 1.27365C68.3279 1.21071 68.3764 1.21352 68.3999 1.21352C68.4529 1.21352 68.6692 1.24358 69.0429 1.60797L76.3456 8.72654C76.603 8.97628 76.6634 9.17831 76.5253 9.32343L60.0837 25.3528L65.3192 30.4587C65.6843 30.813 65.7533 30.9994 65.7796 31.0155C65.6518 31.1189 65.1999 31.2119 64.7436 31.2191C64.5598 31.2435 46.5258 33.7109 44.4145 33.7109C44.1378 33.7109 43.9376 33.6463 43.8097 33.5128C43.5947 33.292 43.5729 32.9003 43.5816 32.7785L45.5032 12.8715Z" fill="#5606A6"/>
</svg>
