<svg width="98" height="61" viewBox="0 0 98 61" fill="none" xmlns="http://www.w3.org/2000/svg">
<path d="M97.8857 1.24863C97.9185 1.19106 97.9479 1.12888 97.9667 1.06095C97.972 1.03216 97.972 1.00337 97.9788 0.968257C97.9889 0.908383 97.9995 0.842752 97.9961 0.780576C97.9961 0.770213 98.0014 0.759851 97.9995 0.751791C97.9961 0.716672 97.9821 0.691916 97.9768 0.656798C97.9701 0.619953 97.9701 0.580806 97.958 0.543385C97.9547 0.528992 97.946 0.518627 97.9392 0.506538C97.9238 0.465087 97.9045 0.430545 97.8857 0.397154C97.8597 0.353976 97.8375 0.310798 97.8061 0.27165C97.7835 0.246895 97.7613 0.228472 97.7353 0.203717C97.6991 0.170901 97.6595 0.142115 97.6181 0.11736C97.5906 0.100664 97.5626 0.090301 97.5318 0.082241C97.4888 0.0638184 97.4401 0.0534561 97.3938 0.0494261C97.3938 0.0494261 97.3644 0.0390625 97.3509 0.0390625H97.3268L0.630732 3.88192C0.318255 3.89228 0.0559289 4.17034 0.0077072 4.5411C-0.0405145 4.90782 0.140799 5.27052 0.435916 5.3943L21.9597 14.4536L28.2053 60.3053C28.2193 60.4044 28.2483 60.497 28.2897 60.5794C28.295 60.5915 28.3037 60.5978 28.3105 60.6082C28.3659 60.7049 28.4397 60.7832 28.5226 60.8407C28.5347 60.8488 28.5381 60.8678 28.5501 60.8736C28.5622 60.8839 28.5728 60.8776 28.581 60.8839C28.6639 60.9271 28.7536 60.9599 28.8467 60.9599H28.8486C28.8814 60.9599 28.9176 60.9576 28.9523 60.9496C29.054 60.9288 29.1404 60.8833 29.2166 60.8154C29.2219 60.8114 29.2286 60.8154 29.232 60.8114L95.0879 3.30045L97.675 1.49561C97.6938 1.48352 97.7044 1.46682 97.7164 1.45415C97.77 1.41097 97.8182 1.3655 97.8563 1.30792C97.8683 1.2895 97.8751 1.26935 97.8857 1.24863ZM28.4778 16.825C28.4691 16.8371 28.459 16.8417 28.4518 16.8538C28.3722 16.9632 28.3225 17.0967 28.3052 17.2412C28.3018 17.2556 28.2897 17.266 28.2897 17.2781C28.2897 17.2844 28.2931 17.2948 28.2917 17.3051C28.2917 17.3235 28.2864 17.3443 28.2864 17.365L28.2174 50.6875L23.2901 14.5296L72.0037 6.03046L28.8076 16.6022C28.6765 16.6356 28.566 16.7196 28.4778 16.825ZM93.6297 2.51576L54.0469 30.1434L31.0389 17.6511L93.6297 2.51576ZM85.7324 2.06037L22.6054 13.0748L4.13404 5.29931L85.7324 2.06037ZM29.503 58.6461L29.5874 18.5717L53.8154 31.7249C53.8998 31.7721 53.9933 31.7968 54.083 31.7968C54.1968 31.7968 54.3106 31.76 54.4109 31.6875L84.0875 10.9706L29.503 58.6461Z" fill="#5606A6"/>
</svg>
